<svg id="SVGDoc" width="26" height="15" xmlns="http://www.w3.org/2000/svg" version="1.1" xmlns:xlink="http://www.w3.org/1999/xlink" xmlns:avocode="https://avocode.com/" viewBox="0 0 26 15"><defs><path d="M924.7015,747.17863c-0.37689,-0.39103 -0.98705,-0.39083 -1.36366,0l-1.35221,1.40347v-7.58125c0,-0.55265 -0.43163,-1.00098 -0.96426,-1.00098h-9.43928c-0.53253,0 -0.96426,0.44833 -0.96426,1.00098c0,0.55265 0.43173,1.00078 0.96426,1.00078h8.47511v6.58047l-1.35221,-1.40366c-0.37661,-0.39103 -0.98686,-0.39103 -1.36347,-0.00039c-0.3767,0.39142 -0.37689,1.02409 -0.00019,1.41571l2.99788,3.11172c0.18129,0.18804 0.42629,0.29332 0.68216,0.29332c0.25616,0 0.50097,-0.10587 0.68216,-0.29332l2.99816,-3.11172c0.37651,-0.39083 0.37651,-1.02429 -0.00019,-1.41512zM916.40091,749.998h-8.47492v-6.58047l1.35221,1.40347c0.18835,0.19561 0.43507,0.29332 0.68197,0.29332c0.2471,0 0.49362,-0.09771 0.68197,-0.29332c0.37661,-0.39064 0.37661,-1.02448 0.00019,-1.41532l-2.99883,-3.1123c-0.18101,-0.18784 -0.42601,-0.29332 -0.68197,-0.29332c-0.25606,0 -0.50116,0.10548 -0.68216,0.29332l-2.99788,3.1123c-0.37651,0.39083 -0.37651,1.02429 0.00019,1.41532c0.37689,0.39103 0.98677,0.39083 1.36366,0l1.35221,-1.40347v7.58125c0,0.55265 0.43163,1.00078 0.96426,1.00078h9.43928c0.53263,0 0.96426,-0.44814 0.96426,-1.00078c-0.00019,-0.55265 -0.43163,-1.00078 -0.96445,-1.00078z" id="Path-0"/></defs><desc>Generated with Avocode.</desc><g transform="matrix(1,0,0,1,-901,-738)"><g><title>Forma 1</title><use xlink:href="#Path-0" fill="#ffffff" fill-opacity="1"/></g></g></svg>