<svg id="SVGDoc" width="20" height="18" xmlns="http://www.w3.org/2000/svg" version="1.1" xmlns:xlink="http://www.w3.org/1999/xlink" xmlns:avocode="https://avocode.com/" viewBox="0 0 20 18"><defs><path d="M979.99992,753.99977c-0.15059,0 -0.2944,-0.06294 -0.39682,-0.17366l-6.39467,-6.91555c-0.00162,-0.00194 -0.00334,-0.00389 -0.00486,-0.00563c-0.77629,-0.86228 -1.20373,-2.00506 -1.20373,-3.21797c0,-1.21291 0.42744,-2.35569 1.20373,-3.21817l0.09718,-0.10781c0.79012,-0.87763 1.84507,-1.36112 2.9705,-1.36112c1.12553,0 2.18058,0.48349 2.9707,1.36112l0.75798,0.84208l0.75798,-0.84208c0.79012,-0.87763 1.84507,-1.36112 2.9706,-1.36112c1.12553,0 2.18048,0.48349 2.9706,1.36131l0.09708,0.10762c0.77629,0.86248 1.20382,2.00526 1.20382,3.21817c0,1.21291 -0.42753,2.35569 -1.20373,3.21817c-0.00162,0.00155 -0.00324,0.0035 -0.00486,0.00544l-6.39467,6.91555c-0.10242,0.11072 -0.24624,0.17366 -0.39682,0.17366zM974.00465,746.17435l5.99527,6.48392l5.99527,-6.48392c1.23358,-1.37336 1.23272,-3.60511 -0.00229,-4.9775l-0.09699,-0.10762c-0.58241,-0.64705 -1.35212,-1.00311 -2.16742,-1.00311c-0.8153,0 -1.58501,0.35606 -2.16722,1.00292l-1.15967,1.28847c-0.10262,0.11364 -0.24853,0.17891 -0.40169,0.17891c-0.15306,0 -0.29898,-0.06527 -0.40169,-0.17891l-1.15957,-1.28847c-0.58231,-0.64686 -1.35193,-1.00292 -2.16732,-1.00292c-0.8153,0 -1.58501,0.35606 -2.16722,1.00292l-0.09718,0.10781c-1.2351,1.37239 -1.23587,3.60414 -0.00229,4.9775z" id="Path-0"/></defs><desc>Generated with Avocode.</desc><g transform="matrix(1,0,0,1,-970,-737)"><g><title>Forma 1</title><use xlink:href="#Path-0" fill="#ffffff" fill-opacity="1"/><use xlink:href="#Path-0" fill-opacity="0" fill="#ffffff" stroke-linejoin="round" stroke-linecap="round" stroke-opacity="1" stroke="#ffffff" stroke-miterlimit="50" stroke-width="1"/></g></g></svg>